<svg id="☑" version="1.1" xmlns="http://www.w3.org/2000/svg" viewBox="0 0 512 512"><path d="M503.399 94.362l-66.663-58.624c-2.048-1.792-4.762-2.714-7.424-2.56-2.714 0.205-5.274 1.434-7.065 3.481l-241.869 275.251-85.965-113.817c-1.638-2.15-4.096-3.584-6.758-3.994-2.713-0.41-5.427 0.307-7.629 1.997l-70.809 53.504c-4.505 3.43-5.427 9.882-1.997 14.387l159.181 210.739c1.843 2.457 4.762 3.942 7.833 4.096 0.102 0 0.256 0 0.358 0 2.97 0 5.786-1.28 7.731-3.481l321.997-366.49c3.738-4.249 3.328-10.752-0.921-14.489z"/></svg>
