<svg id="⛈" version="1.1" xmlns="http://www.w3.org/2000/svg" viewBox="0 0 512 512">
  <path d="M307.2,307.2H204.8v1.1v62l-91.2-88.6l91.2-94.3V256h102.4v-1.1v-69.3l93.9,95.9L307.2,368V307.2z M473.2,401c-20.5,22-47.5,34.2-76,34.2c-90.8,0-174.9,0-265.8,0c-32.6,0-67.3-12.3-89.8-36.6c-20.2-21.9-32.5-51.3-34.5-81.8c-3.4-51,25.4-89.6,64.8-114c0.8-1.4,1.4-2.5,2.2-3.8C61.9,105.6,129.9,51.2,205.5,51.2c49,0,84.9,17.3,110.1,62.1c1.5,2.7,5.8,10.9,8.3,9.5c69.7-68.9,156.6,27.1,120.1,86.9c-0.3,1.9,0.6,3.8,2.2,4.7C511.7,252.3,525.5,344.9,473.2,401z M436.1,248.9c-20-17.5-43.3-30.5-29.7-44.5c34.8-35.7-18.9-99-64.6-48.3c-17.5,19.4-36.5,11.8-48.7-12.2c-19.4-38.3-48.7-49.4-81-49.4c-50.3,0-100.8,27.4-93.9,102.7c-0.8,23.9-14.3,25.8-36.7,48.7C27.1,301.3,65.4,384,121.1,384c93.3,0,165.8,0,259.1,0C441.9,384,486,292.5,436.1,248.9z"/>
</svg>
