<!-- Apache 2.0 https://icon-sets.iconify.design/carbon/task-settings/ -->
<svg id="d" xmlns="http://www.w3.org/2000/svg" viewBox="0 0 32 32">
  <path d="M30 24v-2h-2.101a5 5 0 0 0-.732-1.753l1.49-1.49l-1.414-1.414l-1.49 1.49A5 5 0 0 0 24 18.101V16h-2v2.101a5 5 0 0 0-1.753.732l-1.49-1.49l-1.414 1.414l1.49 1.49A5 5 0 0 0 18.101 22H16v2h2.101c.129.626.378 1.221.732 1.753l-1.49 1.49l1.414 1.414l1.49-1.49a5 5 0 0 0 1.753.732V30h2v-2.101a5 5 0 0 0 1.753-.732l1.49 1.49l1.414-1.414l-1.49-1.49A5 5 0 0 0 27.899 24zm-7 2a3 3 0 1 1 0-6a3 3 0 0 1 0 6" />
    <path d="m23.499 9.085l-6.792-6.792A1 1 0 0 0 16 2H6c-1.1 0-2 .9-2 2v24c0 1.1.9 2 2 2h8v-2H6V4h8v6c0 1.103.897 2 2 2h6.292c.693 0 1.312-.414 1.577-1.054c.266-.64.12-1.37-.37-1.861M16 10V4.414L21.585 10z" />
</svg>
