<!-- Apache 2.0
https://icon-sets.iconify.design/carbon/settings-edit/ -->
<svg id="s" xmlns="http://www.w3.org/2000/svg" viewBox="0 0 32 32">
  <path d="m31.707 19.293l-3-3a1 1 0 0 0-1.414 0L18 25.586V30h4.414l9.293-9.293a1 1 0 0 0 0-1.414M21.586 28H20v-1.586l5-5L26.586 23zM28 21.586L26.414 20L28 18.414L29.586 20zM16 22c-3.364 0-6-2.636-6-6s2.636-6 6-6s6 2.636 6 6s-2.636 6-6 6m0-10c-2.28 0-4 1.72-4 4s1.72 4 4 4s4-1.72 4-4s-1.72-4-4-4"/>
  <path d="m27.547 12l1.733-1l-2.336-4.044a2 2 0 0 0-2.373-.894l-2.434.823a11 11 0 0 0-1.312-.758l-.503-2.52A2 2 0 0 0 18.36 2h-4.72a2 2 0 0 0-1.962 1.608l-.503 2.519c-.46.224-.906.469-1.327.753l-2.42-.818a2 2 0 0 0-2.373.894l-2.36 4.088a2 2 0 0 0 .412 2.502l1.931 1.697C5.021 15.495 5 15.745 5 16q0 .387.028.766l-1.92 1.688a2 2 0 0 0-.413 2.502l2.36 4.088a2 2 0 0 0 2.374.894l2.434-.823q.627.423 1.312.758l.503 2.519A2 2 0 0 0 13.64 30H16v-2h-2.36l-.71-3.55a9.1 9.1 0 0 1-2.695-1.572l-3.447 1.166l-2.36-4.088l2.725-2.395a8.9 8.9 0 0 1-.007-3.128l-2.719-2.39l2.361-4.087l3.427 1.16A9 9 0 0 1 12.93 7.55L13.64 4h4.721l.71 3.55a9.1 9.1 0 0 1 2.695 1.572l3.447-1.166z"/>
</svg>
