<!-- BSD 3-Clause https://github.com/indiana-university/rivet-icons -->
<svg id="⛭" xmlns="http://www.w3.org/2000/svg" viewBox="0 0 24 24">
  <path d="M4.3,18.3L4.3,18.3c5.8-5.7,4.1-3.6,4.5-7.4c0.2-2.4,1.5-2,3.9-2.1c-0.7,0.7-1.6,1.4-1.7,2c-0.5,2,1.6,3.6,3.5,1.7c0.2-0.2,0.6-0.6,1-1c0,3.4,0.2,3.9-3.7,3.9c-1.9,0-1.9,0.5-4.4,3c-1.5,1.5-3,3.6-4.1,2.4C2.4,19.9,3.6,19,4.3,18.3 M13.5,11.4c-1,1-1.1,0-1-0.2c0.1-0.1,0.4-0.5,0.8-0.8C14,9.6,15,8.9,14.7,8c-0.4-0.9-1.4-0.8-2.8-0.8c-2.6,0.1-4.2,0.4-4.5,3.4c-0.4,4,1.4,0.7-5.2,7.6c-2.1,2.2,0.9,6.1,3.8,3.8l5-5c1.3-0.4,5.9,1.3,5.9-4.3c0-1.5,0.3-3.1-1.1-3.2C15.2,9.5,14.9,10,13.5,11.4z M12.6,22.7c-2.5,0-3,0.2-3.7-1.9c-0.3-0.9,1.1-1.4,1.4-0.5c0.3,1,0,0.9,2.3,0.9c1.2,0,0.8,0.2,1.5-1.9c0.5-1.3,2.1-2.2,3.4-1.8c2.7,0.7,1.9,1.1,3.2-1.1c0.6-1.1,0.6-0.5-1.2-2.6c-0.8-1-0.8-2.8,0-3.7c1.9-2.3,2-1.3,0.7-3.5c-0.7-1.1-0.2-0.9-2.6-0.2c-1.4,0.3-2.9-0.5-3.4-1.8c-0.8-2.3-0.1-1.9-2.6-1.9c-1.2,0-0.8-0.2-1.5,1.9c-0.5,1.3-2,2.2-3.4,1.8C3.9,5.7,4.7,5.3,3.4,7.5C2.8,8.6,2.8,8,4.6,10.1c0.8,1,0.8,2.8,0,3.7L3,15.7c-0.1,1.2-2.8,0.9-0.6-1.7c1.7-1.9,1.8-2.1,0-4.1C1,8.3,1.4,8,2.6,5.9c2-3.4,3.4,0,5.5-1.2c1.4-0.8-0.1-3.4,3.4-3.4c3.4,0,3,0,4.1,2.9C16.2,6,19,4,20.2,4.5c0.8,0.3,2.4,3.1,2.3,4c-0.1,1.3-3.2,2.9-1.9,4.5c2.2,2.6,2.6,2.1,0.8,5.2c-2,3.4-3.4,0-5.5,1.2C14.6,20.2,16.1,22.7,12.6,22.7z" />
</svg>
