<svg id="⚙" version="1.1" xmlns="http://www.w3.org/2000/svg" viewBox="0 0 512 512"><path d="M425.6 409.6l48-83.2-70.4-48c0-6.4 3.2-16 3.2-22.4s0-16-3.2-22.4l70.4-48-48-83.2-76.8 38.4c-12.8-9.6-25.6-16-38.4-22.4l-6.4-86.4h-96l-6.4 86.4c-12.8 3.2-25.6 12.8-38.4 22.4l-76.8-38.4-48 83.2 70.4 48c0 6.4-3.2 16-3.2 22.4s0 16 3.2 22.4l-70.4 48 48 83.2 76.8-38.4c12.8 9.6 25.6 16 38.4 22.4l6.4 86.4h96l6.4-86.4c12.8-6.4 25.6-12.8 38.4-22.4l76.8 38.4zM256 329.6c-41.6 0-73.6-32-73.6-73.6s32-73.6 73.6-73.6c41.6 0 73.6 32 73.6 73.6s-32 73.6-73.6 73.6z"/></svg>
