<!-- Apache 2.0 https://icon-sets.iconify.design/oui/documentation/ -->
<svg id="D" xmlns="http://www.w3.org/2000/svg" viewBox="0 0 16 16">
  <path d="M9 3.5a.5.5 0 1 1-1 0a.5.5 0 0 1 1 0M9 5v3h1v1H8V6H7V5z"/>
  <path d="M13.855 14.147a1.3 1.3 0 0 1-.158-.246A2 2 0 0 1 13.5 13c0-.414.103-.713.197-.901a1.3 1.3 0 0 1 .158-.246l.003-.005A.5.5 0 0 0 14 11.5V.5a.5.5 0 0 0-.5-.5H3.461l-.083.005a3 3 0 0 0-1.102.298a2.26 2.26 0 0 0-.88.763C1.148 1.44 1 1.913 1 2.5V13c0 .463.117.843.318 1.145c.2.298.462.491.708.615a2.3 2.3 0 0 0 .94.24H3v-1l-.029-.002a1.3 1.3 0 0 1-.498-.133a.8.8 0 0 1-.323-.275C2.07 13.47 2 13.287 2 13s.07-.47.15-.59a.8.8 0 0 1 .324-.275A1.3 1.3 0 0 1 3 12h9.658c-.091.27-.158.605-.158 1s.067.73.158 1H8v1h5.5a.5.5 0 0 0 .359-.848zm-.001 0l.002.002zM2.724 1.197q.14-.068.276-.11C3 2.918 3.001 11 2.999 11h-.033a2 2 0 0 0-.283.03a2.3 2.3 0 0 0-.657.21L2 11.254V2.5c0-.413.102-.689.229-.879c.128-.193.304-.328.495-.424M4 11V1h9v10z"/>
  <path d="M7 13H4v2.5a.5.5 0 0 0 .854.354l.646-.647l.646.647A.5.5 0 0 0 7 15.5z"/>
</svg>
