<svg id="ⓘ" version="1.1" xmlns="http://www.w3.org/2000/svg" viewBox="0 0 512 512"><path d="M288 160c0 17.673-14.327 32-32 32s-32-14.327-32-32c0-17.673 14.327-32 32-32s32 14.327 32 32z"></path>
<path fill="#000" d="M288 256c0-16-16-32-32-32h-32c-16 0-32 12.8-32 32h32v96c0 16 16 32 32 32h32c16 0 32-12.8 32-32h-32v-96z"></path>
<path fill="#000" d="M256 32c124.8 0 224 99.2 224 224s-99.2 224-224 224-224-99.2-224-224 99.2-224 224-224zM256 73.6c-99.2 0-182.4 83.2-182.4 182.4s83.2 182.4 182.4 182.4 182.4-83.2 182.4-182.4-83.2-182.4-182.4-182.4c0 0 0 0 0 0z"/></svg>
