<svg id="◴" version="1.1" xmlns="http://www.w3.org/2000/svg" viewBox="0 0 512 512"><path d="M332.8 179.2h-153.6v-25.6h153.6zM486.4 345.6c-0.254 77.569-63.195 140.353-140.799 140.353-54.226 0-101.291-30.654-124.815-75.578l-0.369-0.775h-118.016v-332.8h307.2v143.616c45.879 23.78 76.709 70.871 76.8 125.172v0.012zM204.8 358.4c0-4.096 0-21.504 0-25.6h-25.6v-25.6h30.976c2.792-9.844 6.192-18.339 10.351-26.38l-0.367 0.78h-40.96v-25.6h57.856c8.134-9.716 17.305-18.155 27.453-25.299l0.45-0.3h-85.76v-25.6h179.2v-76.8h-204.8v230.4zM460.8 345.6c0-63.623-51.577-115.2-115.2-115.2s-115.2 51.577-115.2 115.2c0 63.623 51.577 115.2 115.2 115.2v0c63.623 0 115.2-51.577 115.2-115.2v0zM358.4 332.8v-76.8h-25.6v102.4h102.4v-25.6z"/></svg>
