<!-- BSD 3-Clause https://github.com/indiana-university/rivet-icons -->
<svg id="p" width="512" height="512" xmlns="http://www.w3.org/2000/svg" viewBox="0 0 16 16">
  <path d="M0 0h16v16H0z" fill="none" />
  <path fill="currentColor" d="M3 0h10v1c0 1.173-.294 2.075-.606 2.697a5 5 0 0 1-.394.656v2.175A6 6 0 0 1 14 11v1H9v3a1 1 0 1 1-2 0v-3H2v-1c0-1.778.774-3.375 2-4.472V4.353a5 5 0 0 1-.394-.656C3.294 3.075 3 2.173 3 1zm2.11 2c.076.332.183.6.284.803a2.7 2.7 0 0 0 .316.492l.006.006l.284.285v3.913l-.4.3A4 4 0 0 0 4.127 10h7.748A4 4 0 0 0 10.4 7.8l-.4-.3V3.585l.284-.284l.006-.007a2.7 2.7 0 0 0 .315-.492c.102-.204.209-.47.285-.803z" />
</svg>
