<svg id="⟳" version="1.1" xmlns="http://www.w3.org/2000/svg" viewBox="0 0 512 512"><path d="M460.8 424.96l-79.36-79.36c12.8-17.92 23.040-38.4 25.6-64h-53.76c-10.24 43.52-51.2 76.8-99.84 76.8-20.48 0-40.96-7.68-58.88-17.92l61.44-58.88h-153.6v153.6l58.88-58.88c25.6 20.48 58.88 33.28 94.72 33.28 33.28 0 64-10.24 89.6-28.16l79.36 79.36 35.84-35.84z"></path>
<path fill="#000" d="M256 153.6c20.48 0 40.96 7.68 58.88 17.92l-58.88 58.88h153.6v-153.6l-58.88 58.88c-25.6-20.48-58.88-33.28-94.72-33.28-76.8 0-138.24 56.32-151.040 128h53.76c10.24-43.52 48.64-76.8 97.28-76.8z"/></svg>
