<svg id="∪" version="1.1" xmlns="http://www.w3.org/2000/svg" viewBox="0 0 16 16" width="512" height="512">
  <!-- pixel-aligned -->
  <path d="M1,0v5.8c0,0.3,0.3,0.4,0.5,0.4C1.7,6.2,2,6.1,2,5.8V0h1v5.9C3,6.7,2.1,7,1.5,7C0.9,7,0,6.7,0,5.9V0H1z"/>
  <path d="M9,4v1.8C9,6,9.3,6,9.5,6S10,6,10,5.8V5h1v1c0,0.6-0.8,1-1.5,1C8.7,7,8,6.6,8,6V1c0-0.6,0.7-1,1.5-1C10.2,0,11,0.4,11,1v3H9z M10,3V1.3C10,1,9.6,1,9.5,1S9,1,9,1.3V3H10z"/>
  <path d="M13,10V9.6c0-0.4-0.7-0.5-1-0.5c-0.3,0-1,0.1-1,0.5v1.1c0,0.6,3,1.5,3,2.4v1.5c0,1.1-1.2,1.5-2,1.5c-0.8,0-2-0.3-2-1.5V14h1v0.5c0,0.4,0.7,0.5,1,0.5c0.3,0,1-0.1,1-0.5v-0.9c0-1.2-3-1.4-3-2.8V9.5c0-1.1,1.2-1.5,2-1.5c0.8,0,2,0.3,2,1.5V10H13z"/>
  <path d="M8,10V9.6c0-0.4-0.7-0.5-1-0.5c-0.3,0-1,0.1-1,0.5v1.1c0,0.6,3,1.5,3,2.4v1.5c0,1.1-1.2,1.5-2,1.5c-0.8,0-2-0.3-2-1.5V14h1v0.5C6,14.9,6.7,15,7,15c0.3,0,1-0.1,1-0.5v-0.9c0-1.2-3-1.4-3-2.8V9.5c0-1.1,1.2-1.5,2-1.5c0.8,0,2,0.3,2,1.5V10H8z"/>
  <path d="M6,2V1.6C6,1.1,5.7,1,5.5,1C5.2,1,5,1.1,5,1.6v0.8C5,4,7,2.7,7,4.7v0.8C7,6.7,6.3,7,5.5,7C4.7,7,4,6.7,4,5.5V5h1v0.4C5,6,5.2,6,5.5,6C5.7,6,6,6,6,5.4V4.9c0-1.2-2-0.8-2-2.2V1.5C4,0.3,4.7,0,5.5,0C6.3,0,7,0.3,7,1.5V2H6z"/>
  <path d="M4,10V9.5c0-1.1-1.2-1.5-2-1.5c-0.8,0-2,0.3-2,1.5v0.9v0.2v4c0,1.1,1.2,1.5,2,1.5c0.8,0,2-0.3,2-1.5v-0.5H3v0.4C3,14.9,2.3,15,2,15c-0.3,0-1-0.1-1-0.5v-3.9v-0.2V9.6c0-0.4,0.7-0.5,1-0.5c0.3,0,1,0.1,1,0.5V10H4z"/>
  <path d="M14.1,0C15,0.1,15,0.7,15,1.5v1.9h-1V1.8c0-0.6-0.3-0.5-0.5-0.5C13.2,1.3,13,1.8,13,2v5h-1V0h1v1C13,1,13.3,0,14.1,0z"/>
</svg>
